<svg viewBox="0 0 44 44" fill="none" xmlns="http://www.w3.org/2000/svg">
<path d="M36.0544 30.8194C35.5467 32.0028 34.9195 33.1313 34.1826 34.1872C33.198 35.5934 32.3896 36.5651 31.7699 37.1059C30.8074 37.9896 29.7734 38.4442 28.6679 38.4699C27.8759 38.4699 26.9189 38.2444 25.8042 37.7861C24.6859 37.3296 23.6592 37.1059 22.7187 37.1059C21.7342 37.1059 20.6782 37.3296 19.5471 37.7861C18.4177 38.2444 17.5047 38.4846 16.8062 38.5066C15.7484 38.5524 14.6906 38.0867 13.6364 37.1059C12.9636 36.5192 12.1221 35.5109 11.1119 34.0846C10.0302 32.5647 9.14105 30.7956 8.44439 28.7844C7.69822 26.6082 7.32422 24.5036 7.32422 22.4649C7.32422 20.1311 7.82839 18.1162 8.83855 16.4296C9.60259 15.1049 10.6949 13.9994 12.0102 13.2194C13.3072 12.4415 14.7879 12.0226 16.3002 12.0057C17.1436 12.0057 18.2491 12.2661 19.6186 12.7794C20.9881 13.2927 21.8681 13.5531 22.2512 13.5531C22.5409 13.5531 23.5144 13.2469 25.1717 12.6401C26.7356 12.0772 28.0556 11.8444 29.1372 11.9361C32.0706 12.1726 34.2724 13.3276 35.7372 15.4102C33.1156 16.9997 31.8194 19.2236 31.8451 22.0781C31.8671 24.3019 32.6756 26.1517 34.2596 27.6202C34.9598 28.2904 35.7769 28.8266 36.6704 29.2024C36.4761 29.7652 36.2707 30.3024 36.0544 30.8194ZM29.3316 4.36256C29.3316 6.10423 28.6936 7.73223 27.4267 9.2374C25.8941 11.0267 24.0424 12.0626 22.0349 11.8994C22.0086 11.6804 21.9958 11.46 21.9964 11.2394C21.9964 9.56556 22.7224 7.77623 24.0186 6.3114C24.6639 5.57073 25.4852 4.9529 26.4807 4.46156C27.4744 3.97756 28.4131 3.7099 29.2967 3.66406C29.3206 3.89873 29.3316 4.13156 29.3316 4.36256Z" fill="white"/>
</svg>
