<svg  viewBox="0 0 35 36" fill="none" xmlns="http://www.w3.org/2000/svg">
<path d="M31.1359 16.65H17.763V20.745H27.2568C26.7755 26.46 22.1526 28.905 17.7776 28.905C12.1922 28.905 7.29219 24.375 7.29219 18C7.29219 11.85 11.9589 7.095 17.7922 7.095C22.2984 7.095 24.938 10.05 24.938 10.05L27.7089 7.08C27.7089 7.08 24.1505 3 17.6464 3C9.36302 3 2.96094 10.2 2.96094 18C2.96094 25.575 8.98385 33 17.8651 33C25.6672 33 31.3547 27.495 31.3547 19.365C31.3547 17.64 31.1359 16.65 31.1359 16.65Z" fill="#F8F8F8"/>
</svg>
