<svg viewBox="0 0 44 44" fill="none" xmlns="http://www.w3.org/2000/svg">
<path d="M22.0013 3.66602C24.4089 3.66602 26.7929 4.14022 29.0172 5.06156C31.2415 5.98289 33.2625 7.33332 34.9649 9.03572C36.6673 10.7381 38.0178 12.7592 38.9391 14.9835C39.8604 17.2078 40.3346 19.5918 40.3346 21.9993C40.3346 26.8617 38.4031 31.5248 34.9649 34.963C31.5268 38.4011 26.8636 40.3327 22.0013 40.3327C13.568 40.3327 6.50964 34.686 4.32797 27.0043L11.3496 29.901C11.5912 31.0749 12.2299 32.1297 13.1583 32.8878C14.0866 33.6458 15.2478 34.0607 16.4463 34.0627C19.3063 34.0627 21.6346 31.7344 21.6346 28.8743V28.636L27.868 24.181H28.0146C31.828 24.181 34.9263 21.0827 34.9263 17.2693C34.9263 13.456 31.828 10.3577 28.0146 10.3577C24.2013 10.3577 21.0846 13.456 21.0846 17.2693V17.361L16.7396 23.7043L16.4463 23.686C15.3646 23.686 14.3563 24.016 13.5313 24.5843L3.66797 20.5327C4.4563 11.091 12.3396 3.66602 22.0013 3.66602ZM15.1813 31.4777C16.648 32.0827 18.3346 31.4044 18.9396 29.9377C19.5446 28.471 18.848 26.8027 17.418 26.1977L15.0713 25.226C15.9696 24.896 16.978 24.8777 17.9313 25.281C18.903 25.666 19.6546 26.4177 20.0396 27.3893C20.443 28.3427 20.443 29.406 20.0396 30.3593C19.2513 32.3393 16.923 33.2927 14.943 32.4677C14.0263 32.0827 13.3296 31.386 12.9446 30.561L15.1813 31.4777ZM32.6346 17.2693C32.6346 19.8177 30.563 21.8893 28.0146 21.8893C26.7925 21.8845 25.6221 21.3956 24.7597 20.5297C23.8972 19.6638 23.413 18.4915 23.413 17.2693C23.4105 16.6644 23.5279 16.0649 23.7583 15.5055C23.9887 14.9461 24.3276 14.4379 24.7554 14.0101C25.1831 13.5823 25.6914 13.2434 26.2508 13.013C26.8102 12.7826 27.4097 12.6653 28.0146 12.6677C29.2368 12.6677 30.4091 13.1519 31.275 14.0144C32.1409 14.8768 32.6298 16.0472 32.6346 17.2693ZM24.568 17.2693C24.568 19.176 26.108 20.7344 28.033 20.7344C29.9396 20.7344 31.4796 19.176 31.4796 17.2693C31.4796 15.3627 29.9396 13.8043 28.033 13.8043C26.108 13.8043 24.568 15.3627 24.568 17.2693Z" fill="#F8F8F8"/>
</svg>
