<svg viewBox="0 0 38 38" fill="none" xmlns="http://www.w3.org/2000/svg">
<path d="M19.0013 0.666016C21.4089 0.666016 23.7929 1.14022 26.0172 2.06156C28.2415 2.98289 30.2625 4.33332 31.9649 6.03572C33.6673 7.73813 35.0178 9.75918 35.9391 11.9835C36.8604 14.2078 37.3346 16.5918 37.3346 18.9993C37.3346 23.8617 35.4031 28.5248 31.9649 31.963C28.5268 35.4011 23.8636 37.3327 19.0013 37.3327C10.568 37.3327 3.50964 31.686 1.32797 24.0043L8.34964 26.901C8.59119 28.0749 9.22993 29.1297 10.1583 29.8878C11.0866 30.6458 12.2478 31.0607 13.4463 31.0627C16.3063 31.0627 18.6346 28.7344 18.6346 25.8743V25.636L24.868 21.181H25.0146C28.828 21.181 31.9263 18.0827 31.9263 14.2693C31.9263 10.456 28.828 7.35768 25.0146 7.35768C21.2013 7.35768 18.0846 10.456 18.0846 14.2693V14.361L13.7396 20.7043L13.4463 20.686C12.3646 20.686 11.3563 21.016 10.5313 21.5843L0.667969 17.5327C1.4563 8.09102 9.33964 0.666016 19.0013 0.666016ZM12.1813 28.4777C13.648 29.0827 15.3346 28.4044 15.9396 26.9377C16.5446 25.471 15.848 23.8027 14.418 23.1977L12.0713 22.226C12.9696 21.896 13.978 21.8777 14.9313 22.281C15.903 22.666 16.6546 23.4177 17.0396 24.3893C17.443 25.3427 17.443 26.406 17.0396 27.3593C16.2513 29.3393 13.923 30.2927 11.943 29.4677C11.0263 29.0827 10.3296 28.386 9.94464 27.561L12.1813 28.4777ZM29.6346 14.2693C29.6346 16.8177 27.563 18.8893 25.0146 18.8893C23.7925 18.8845 22.6221 18.3956 21.7597 17.5297C20.8972 16.6638 20.413 15.4915 20.413 14.2693C20.4105 13.6644 20.5279 13.0649 20.7583 12.5055C20.9887 11.9461 21.3276 11.4379 21.7554 11.0101C22.1831 10.5823 22.6914 10.2434 23.2508 10.013C23.8102 9.78263 24.4097 9.66526 25.0146 9.66768C26.2368 9.66767 27.4091 10.1519 28.275 11.0144C29.1409 11.8768 29.6298 13.0472 29.6346 14.2693ZM21.568 14.2693C21.568 16.176 23.108 17.7344 25.033 17.7344C26.9396 17.7344 28.4796 16.176 28.4796 14.2693C28.4796 12.3627 26.9396 10.8043 25.033 10.8043C23.108 10.8043 21.568 12.3627 21.568 14.2693Z" fill="#F8F8F8"/>
</svg>
