<svg  viewBox="0 0 30 36" fill="none" xmlns="http://www.w3.org/2000/svg">
<path d="M29.0544 27.8194C28.5467 29.0028 27.9195 30.1313 27.1826 31.1872C26.198 32.5934 25.3896 33.5651 24.7699 34.1059C23.8074 34.9896 22.7734 35.4442 21.6679 35.4699C20.8759 35.4699 19.9189 35.2444 18.8042 34.7861C17.6859 34.3296 16.6592 34.1059 15.7187 34.1059C14.7342 34.1059 13.6782 34.3296 12.5471 34.7861C11.4177 35.2444 10.5047 35.4846 9.80622 35.5066C8.74839 35.5524 7.69055 35.0867 6.63638 34.1059C5.96355 33.5192 5.12205 32.5109 4.11189 31.0846C3.03022 29.5647 2.14105 27.7956 1.44439 25.7844C0.698219 23.6082 0.324219 21.5036 0.324219 19.4649C0.324219 17.1311 0.828386 15.1162 1.83855 13.4296C2.60259 12.1049 3.69489 10.9994 5.01022 10.2194C6.30724 9.44146 7.78788 9.02257 9.30022 9.00573C10.1436 9.00573 11.2491 9.26606 12.6186 9.7794C13.9881 10.2927 14.8681 10.5531 15.2512 10.5531C15.5409 10.5531 16.5144 10.2469 18.1717 9.64006C19.7356 9.07723 21.0556 8.8444 22.1372 8.93606C25.0706 9.17256 27.2724 10.3276 28.7372 12.4102C26.1156 13.9997 24.8194 16.2236 24.8451 19.0781C24.8671 21.3019 25.6756 23.1517 27.2596 24.6202C27.9598 25.2904 28.7769 25.8266 29.6704 26.2024C29.4761 26.7652 29.2707 27.3024 29.0544 27.8194ZM22.3316 1.36256C22.3316 3.10423 21.6936 4.73223 20.4267 6.2374C18.8941 8.02673 17.0424 9.06256 15.0349 8.8994C15.0086 8.68039 14.9958 8.45998 14.9964 8.2394C14.9964 6.56556 15.7224 4.77623 17.0186 3.3114C17.6639 2.57073 18.4852 1.9529 19.4807 1.46156C20.4744 0.977563 21.4131 0.709896 22.2967 0.664062C22.3206 0.898729 22.3316 1.13156 22.3316 1.36256Z" fill="white"/>
</svg>
